# xmcd
#
# Track frame offsets:
#	150
#	1130
#	16254
#	34529
#	44549
#	62011
#	83306
#	98677
#	115984
#	134555
#	159281
#	177615
#	193210
#	205989
#	228279
#	244692
#
# Disc length: 3511 seconds
#
# Revision: 1
# Processed by: cddbd v1.5.2PL0 Copyright (c) Steve Scherf et al.
# Submitted via: audiograbber 1.83.01
#
DISCID=c70db510
DTITLE=NRPS - 77-12-07 Ivanhoe Theatre, Chicago IL
DYEAR=1900
DGENRE=
TTITLE0=Intro
TTITLE1=Panama Red
TTITLE2=15 Days Under The Hood
TTITLE3=By And By When I Need You
TTITLE4=Louisiana Lady
TTITLE5=Henry
TTITLE6=Just Another Night In Reno
TTITLE7=Home Grown
TTITLE8=Lonesome LA Cowboy
TTITLE9=Love Has Strange Ways
TTITLE10=Red Hot Women and Ice Cold Beer
TTITLE11=Whiskey
TTITLE12=She's Looking Better Every Beer
TTITLE13=You Never Can Tell
TTITLE14=Heineken Slide
TTITLE15=Up Against The Wall, Redneck Mother
EXTD=
EXTT0=
EXTT1=
EXTT2=
EXTT3=
EXTT4=
EXTT5=
EXTT6=
EXTT7=
EXTT8=
EXTT9=
EXTT10=
EXTT11=
EXTT12=
EXTT13=
EXTT14=
EXTT15=
PLAYORDER=
